<svg width="199.99999999999997" height="102" xmlns="http://www.w3.org/2000/svg">

 <g>
  <title>Layer 1</title>
  <path id="svg_1" fill="#40d6ff" d="m43,81.26l-1,1.68l10.53,8.74l3.37,-4.21l-7.59,-6.21a22.69,22.69 0 0 0 1.27,-7.48l0,-50.54a24.85,24.85 0 0 0 -49.6,0l0,50.86a24.74,24.74 0 0 0 25.17,24a25.33,25.33 0 0 0 13.71,-4.1l7.37,6l3.47,-4.21l-10.53,-8.74l-1.68,1.37a19.72,19.72 0 0 1 -12.11,4.21a19.16,19.16 0 0 1 -19.48,-18.53l0,-50.86a19.37,19.37 0 0 1 38.64,0l0,50.86a17.21,17.21 0 0 1 -1.54,7.16z"/>
  <path id="svg_2" fill="#ae49ff" d="m29.38,65.88l-3.48,4.21l10.53,8.85l0,-55.7a11.25,11.25 0 0 0 -11.68,-10.53a11.27,11.27 0 0 0 -11.59,10.53l0,50.86a11.28,11.28 0 0 0 11.59,10.53a11.26,11.26 0 0 0 3.68,-0.63l5.27,-1l-10.53,-9l-2.53,3.16a5,5 0 0 1 -1.05,-3l0,-51a5.79,5.79 0 0 1 6.1,-5.38a5.82,5.82 0 0 1 5.8,5.38l0,44.3l-2.11,-1.58z"/>
  <text transform="matrix(1.80353, 0, 0, 3.02377, -40.6854, -14.7812)" xml:space="preserve" text-anchor="start" font-family="'Markazi Text'" font-size="26" id="svg_4" y="27.83306" x="55.78944" stroke-width="0" stroke="#000" fill="#000000">i  c  k</text>
 </g>
</svg>