<svg xmlns="http://www.w3.org/2000/svg" viewBox="-0.020000457763671875 -0.03438758850097656 55.91999816894531 100.03438568115234"><path d="M43 81.26l-1 1.68 10.53 8.74 3.37-4.21-7.59-6.21a22.69 22.69 0 0 0 1.27-7.48V23.24a24.85 24.85 0 0 0-49.6 0V74.1a24.74 24.74 0 0 0 25.17 24A25.33 25.33 0 0 0 38.86 94l7.37 6 3.47-4.21-10.53-8.74-1.68 1.37a19.72 19.72 0 0 1-12.11 4.21A19.16 19.16 0 0 1 5.9 74.1V23.24a19.37 19.37 0 0 1 38.64 0V74.1A17.21 17.21 0 0 1 43 81.26z" fill="#40d6ff"></path><path d="M29.38 65.88l-3.48 4.21 10.53 8.85v-55.7a11.25 11.25 0 0 0-11.68-10.53 11.27 11.27 0 0 0-11.59 10.53V74.1a11.28 11.28 0 0 0 11.59 10.53 11.26 11.26 0 0 0 3.68-.63l5.27-1-10.53-9-2.53 3.16a5 5 0 0 1-1.05-3v-51a5.79 5.79 0 0 1 6.1-5.38 5.82 5.82 0 0 1 5.8 5.38v44.3z" fill="#ae49ff"></path></svg>